%FSTAX23Y23*%
%MOIN*%
%SFA1B1*%

%IPPOS*%
%ADD33C,0.008000*%
%ADD34C,0.020000*%
%ADD35C,0.010000*%
%ADD36C,0.015000*%
%ADD37C,0.030000*%
%ADD42R,0.059060X0.059060*%
%ADD43C,0.059060*%
%ADD44C,0.060000*%
%ADD45R,0.059060X0.059060*%
%ADD46O,0.070870X0.086610*%
%ADD47C,0.050000*%
%ADD48C,0.035000*%
%ADD49C,0.025980*%
%LNled_pcb-1*%
%LPD*%
G54D33*
X04345Y01945D02*
X0436Y0196D01*
Y02092*
X0446Y02192*
X0414Y03056D02*
X05089D01*
X02675D02*
X0414D01*
X04004Y0304D02*
X04068Y02976D01*
X04007Y02946D02*
X04146D01*
X0395Y03004D02*
X04007Y02946D01*
X05765Y02594D02*
X05788Y02571D01*
X03315Y0092D02*
X0332D01*
X0312Y00915D02*
Y0092D01*
X0225Y0421D02*
X02255D01*
X04165Y01949D02*
X04225D01*
X04108Y02007D02*
X04165Y01949D01*
X04108Y02007D02*
X04116Y02015D01*
X041D02*
X04116D01*
X04183Y02173D02*
Y02358D01*
X04002Y01992D02*
X04183Y02173D01*
X01841Y01992D02*
X04002D01*
X06829Y03555D02*
X0686Y03586D01*
X0614Y03555D02*
X06829D01*
X0595Y03744D02*
X0614Y03555D01*
X0644Y0382D02*
Y0384D01*
X03998Y02743D02*
X04174Y02568D01*
X03886Y02856D02*
X03998Y02743D01*
X04445Y0345D02*
X0452Y03525D01*
X0343Y0345D02*
X04445D01*
X05706Y02307D02*
X05745Y02269D01*
X04804Y02307D02*
X05706D01*
X04513Y02449D02*
X04553Y02409D01*
X04449Y02449D02*
X04513D01*
X04528Y0249D02*
X04546Y02471D01*
X04435Y0249D02*
X04528D01*
X04412Y02467D02*
X04435Y0249D01*
X04302Y02467D02*
X04412D01*
X04442Y02465D02*
X04521D01*
X04369Y02392D02*
X04442Y02465D01*
X04435Y02435D02*
X04449Y02449D01*
X04278Y02392D02*
X04369D01*
X04435Y02389D02*
Y02435D01*
X04563Y02442D02*
X04565Y0244D01*
X04545Y02442D02*
X04563D01*
X04521Y02465D02*
X04545Y02442D01*
X04557Y02506D02*
X05246D01*
X04523Y0254D02*
X04557Y02506D01*
X04506Y0254D02*
X04523D01*
X04495Y02415D02*
X04525Y02385D01*
X04621*
X04553Y02409D02*
X0462D01*
X04442Y02605D02*
X04506Y0254D01*
X04477Y02359D02*
X04483Y02366D01*
X04407Y02359D02*
X04477D01*
X0449Y0235D02*
X04523D01*
X0445Y0231D02*
X0449Y0235D01*
X04483Y02366D02*
X0453D01*
X04541Y02355*
X04565*
X04546Y02471D02*
X0464D01*
X04804Y02307*
X04391Y02376D02*
X04407Y02359D01*
X04304Y02376D02*
X04391D01*
X04505Y02315D02*
X04611Y02208D01*
X05074*
X04552Y02321D02*
X04587D01*
X04523Y0235D02*
X04552Y02321D01*
X0445Y02242D02*
Y0231D01*
X04398Y02347D02*
X0442Y02325D01*
X04424Y0232*
X04324Y02347D02*
X04398D01*
X0436Y02152D02*
X0445Y02242D01*
X04621Y02385D02*
X04639Y02367D01*
X0462Y02409D02*
X04738Y02291D01*
X02048Y01501D02*
X0207Y0148D01*
X02048Y01501D02*
Y01508D01*
X03387Y01444D02*
X03397Y01453D01*
X03403Y01437D02*
X03538D01*
X03382Y01417D02*
X03403Y01437D01*
X02034Y01417D02*
X03382D01*
X03532Y01421D02*
X03565Y01388D01*
Y01389*
X04689*
X03413Y01421D02*
X03532D01*
X03562Y01414D02*
X04672D01*
X03538Y01437D02*
X03562Y01414D01*
X03545Y01453D02*
X03548Y01451D01*
X03397Y01453D02*
X03545D01*
X02659Y01383D02*
X03375D01*
X02359Y01083D02*
X02659Y01383D01*
X03375D02*
X03413Y01421D01*
X03589Y01495D02*
X03842D01*
X03581Y01486D02*
X03589Y01495D01*
X03556Y01486D02*
X03581D01*
X03548Y01495D02*
X03556Y01486D01*
X03842Y01495D02*
X04Y01653D01*
X02138Y01726D02*
X04239D01*
X04639Y02354D02*
X04732Y02262D01*
X04639Y02354D02*
Y02367D01*
X04587Y02321D02*
X04683Y02224D01*
X04883*
X03988Y02535D02*
X04017Y02505D01*
X03975Y02535D02*
X03988D01*
X03082Y02105D02*
X03765D01*
X04635Y01455D02*
X04639Y01451D01*
X04999Y01435D02*
X0504Y01476D01*
Y01513*
X04911Y01495D02*
X04995D01*
X04714Y01691D02*
X04911Y01495D01*
X05007Y01546D02*
X0504Y01513D01*
X04962Y01546D02*
X05007D01*
X04947Y01561D02*
X04962Y01546D01*
X04947Y01561D02*
Y01923D01*
X07675Y03445D02*
Y03485D01*
X05695Y02506D02*
X05704Y02515D01*
X05788Y02571D02*
X05818D01*
X05864Y02435D02*
X05885D01*
X05862Y02433D02*
X05864Y02435D01*
X05635Y02453D02*
X05655Y02433D01*
X05862*
X05635Y02453D02*
Y02465D01*
X0543Y02452D02*
X05489Y02392D01*
X0543Y02452D02*
Y02475D01*
X05394Y0253D02*
X0552Y02656D01*
X05375Y0253D02*
X05394D01*
X05246Y02506D02*
X05265Y02525D01*
X05369Y02524D02*
X05375Y0253D01*
X04524Y02566D02*
X05272D01*
Y02564D02*
Y02566D01*
Y02564D02*
X05311Y02525D01*
X0532*
X05265D02*
X0527D01*
X05357Y0264D02*
X05459D01*
X05357Y0264D02*
X05357Y0264D01*
X0525Y0264D02*
X05357D01*
X05459Y0264D02*
X0546Y0264D01*
X05371Y02941D02*
X0556Y02752D01*
Y0263D02*
Y02752D01*
X0512Y02765D02*
X05125D01*
X0525Y0264*
X05147Y02675D02*
X05156Y02666D01*
X0464Y02675D02*
X05147D01*
X04602Y02713D02*
X0464Y02675D01*
X05494Y02796D02*
X0552Y0277D01*
Y02656D02*
Y0277D01*
X04166Y02941D02*
X05371D01*
X04403Y02796D02*
X05494D01*
X04601Y02611D02*
X0537D01*
X05545Y0283D02*
X05571Y02804D01*
X05734*
X05043Y02993D02*
X05158D01*
X04292Y02977D02*
X05545D01*
X05158Y02993D02*
X05224Y03059D01*
X036Y03845D02*
X037Y03945D01*
X0228Y03515D02*
X02289Y03505D01*
X01529Y02672D02*
Y0282D01*
Y02672D02*
X01529Y02672D01*
Y02647D02*
Y02672D01*
X01511Y0263D02*
X01529Y02647D01*
X04239Y01726D02*
X04274Y01691D01*
X00897Y0115D02*
X0119D01*
X008Y01053D02*
X00897Y0115D01*
X01042Y00867D02*
Y00912D01*
Y00867D02*
X01071Y00839D01*
X01042Y00912D02*
X01339Y01209D01*
X01071Y00839D02*
X01128D01*
X01339Y01209D02*
X0142D01*
X01979Y01472D02*
X02034Y01417D01*
X03855Y02421D02*
Y02435D01*
Y02421D02*
X03858Y02418D01*
X01174Y01281D02*
X01227Y01227D01*
X0085Y01281D02*
X01174D01*
X06679Y01791D02*
X0694Y0153D01*
X05486Y01791D02*
X06679D01*
X0694Y01505D02*
X06985Y0146D01*
X0694Y01505D02*
Y0153D01*
X01638Y03206D02*
X01943D01*
X00986D02*
X01638D01*
X05785Y02088D02*
Y02352D01*
X06302Y01835*
X05089Y03056D02*
X05162D01*
X05864Y03532D02*
X07252Y03531D01*
X01815Y01726D02*
X02138D01*
X02336Y01528*
X0336Y01725D02*
X03569Y01516D01*
X04273Y02539D02*
X04315D01*
X0424Y02505D02*
X04273Y02539D01*
X04017Y02505D02*
X0424D01*
X0094Y0316D02*
X00986Y03206D01*
X01859Y01697D02*
X02048Y01508D01*
X01726Y01697D02*
X01859D01*
X01425Y01115D02*
X01609D01*
X01646Y01152*
X03804Y0201D02*
X04176Y02382D01*
X04268*
X04278Y02392*
X05491Y02192D02*
X05515Y02216D01*
X0446Y02192D02*
X05491D01*
X08335Y02945D02*
X0838Y029D01*
X08228Y02945D02*
X08335D01*
X08203Y0297D02*
X08228Y02945D01*
X06418Y0297D02*
X08203D01*
X06393Y02995D02*
X06418Y0297D01*
X06047Y02995D02*
X06393D01*
X05589Y02537D02*
X06047Y02995D01*
X05494Y02537D02*
X05589D01*
X05403Y00685D02*
X05468Y0062D01*
X0614*
X0062Y0314D02*
X0068Y032D01*
X0081*
X00892Y03117*
X02114*
X02136Y03138*
X02411*
X02626Y02924*
X04148*
X04166Y02941*
X05734Y02804D02*
X05921Y02991D01*
X0236Y03371D02*
X02675Y03056D01*
X01707Y03371D02*
X0236D01*
X01561Y03225D02*
X01707Y03371D01*
X01175Y03225D02*
X01561D01*
X01082Y03318D02*
X01175Y03225D01*
X00899Y03318D02*
X01082D01*
X00889Y03511D02*
X00899Y03318D01*
X0062Y0378D02*
X00889Y03511D01*
X05089Y03056D02*
X05162D01*
X04867Y03456D02*
X05577D01*
X05653Y03532*
X04732Y02262D02*
X0483D01*
X03282Y03598D02*
X0343Y0345D01*
X02288Y01638D02*
X02482Y01444D01*
X04933Y03393D02*
X05602D01*
X04883Y02224D02*
X04917Y02258D01*
X04738Y02291D02*
X04945D01*
X04963Y02274*
X03012Y03156D02*
X04963D01*
X0295Y03218D02*
X03012Y03156D01*
X0295Y03218D02*
Y0336D01*
X03158Y03568*
X03203*
X04248Y02973D02*
X04263Y02957D01*
X05469*
X05594Y02833*
X05692*
X05899Y0304*
X0278Y01862D02*
X04476D01*
X04503Y01889*
Y02089*
X01759Y03326D02*
X01826Y03259D01*
X0233*
X02549Y0304*
X04004*
X00879Y01357D02*
X01253D01*
X04472Y02619D02*
X04524Y02566D01*
X07617Y0257D02*
X0803D01*
X0808Y0252*
X03542Y02531D02*
Y02636D01*
X03611Y02705*
X0381*
X03841Y02736*
X05422Y01855D02*
X05486Y01791D01*
X05422Y01855D02*
Y02069D01*
X05545Y02192*
Y02237*
X05536Y02246D02*
X05545Y02237D01*
X05112Y02246D02*
X05536D01*
X05074Y02208D02*
X05112Y02246D01*
X0196Y0442D02*
X02005Y04375D01*
X04655*
X05545Y02977D02*
X0566Y02863D01*
X04267Y03002D02*
X04292Y02977D01*
X04146Y02946D02*
X04202Y03002D01*
X04267*
X0562Y00714D02*
X05645Y0069D01*
X05352Y00714D02*
X0562D01*
X05306Y00669D02*
X05352Y00714D01*
X03729Y00669D02*
X05306D01*
X0368Y0062D02*
X03729Y00669D01*
X05492Y01308D02*
X05995Y00805D01*
X07035*
X0094Y0416D02*
X00984Y04115D01*
Y04004D02*
Y04115D01*
X0094Y0396D02*
X00984Y04004D01*
X0392Y02453D02*
Y02528D01*
X03963Y02571*
X04083*
X04133Y02521*
X04182*
X04338Y02909D02*
X04368D01*
X04381Y02896*
Y02818D02*
Y02896D01*
Y02818D02*
X04403Y02796D01*
X015Y03323D02*
Y03655D01*
X04304Y01722D02*
X04367D01*
X04533Y01888*
Y02112*
X04513Y02132D02*
X04533Y02112D01*
X04501Y02132D02*
X04513D01*
X04473Y02104D02*
X04501Y02132D01*
X04473Y0193D02*
Y02104D01*
X04437Y01894D02*
X04473Y0193D01*
X04352Y01894D02*
X04437D01*
X04213Y02033D02*
X04352Y01894D01*
X04213Y02033D02*
Y02337D01*
X04294Y02366D02*
X04304Y02376D01*
X04192Y02366D02*
X04294D01*
X04183Y02358D02*
X04192Y02366D01*
X01745Y01896D02*
X01841Y01992D01*
X03792Y0207D02*
X04137Y02414D01*
X04249*
X04302Y02467*
X03804Y02043D02*
X0416Y02398D01*
X04261*
X043Y02438*
X04318*
X03811Y02416D02*
Y02676D01*
X05994Y03004D02*
X06013Y03023D01*
X04586Y02596D02*
X04601Y02611D01*
X05582Y0162D02*
X0605D01*
X05025Y02176D02*
X05582Y0162D01*
X04696Y02176D02*
X05025D01*
X04618Y02098D02*
X04696Y02176D01*
X04725Y02145D02*
X04947Y01923D01*
X01407Y01083D02*
X02359D01*
X01395Y01096D02*
X01407Y01083D01*
X01395Y01096D02*
Y01136D01*
X01404Y01144*
X0149*
X04713Y01455D02*
Y01623D01*
X04672Y01414D02*
X04713Y01455D01*
X04381Y02925D02*
X04426Y0288D01*
X04209Y02925D02*
X04381D01*
X04196Y02912D02*
X04209Y02925D01*
X01656Y02166D02*
X01728Y02238D01*
X03428*
X0242Y0062D02*
X02465Y00575D01*
X05237*
X05818Y02571D02*
X05875Y02515D01*
X01529Y03039D02*
X02468D01*
X02651Y02856*
X03886*
X03858Y02418D02*
X03955D01*
X04027Y02489*
X0425*
X0426Y02499*
X04323*
X04351Y02527*
Y0288*
X08031Y02671D02*
X0808Y0272D01*
X07898Y02671D02*
X08031D01*
X07659Y0291D02*
X07898Y02671D01*
X04442Y02605D02*
Y02665D01*
X04479Y02702*
X04274Y01691D02*
X04714D01*
X01815Y01726D02*
X01824Y01717D01*
X05756Y03477D02*
X0726D01*
X0099Y0217D02*
X0155D01*
X01595Y02125*
X0072Y0274D02*
X0079Y0281D01*
X01529Y0282D02*
X01592Y02883D01*
X01483Y03058D02*
X01499Y03042D01*
X05017Y03018D02*
X05043Y02993D01*
X04097Y03018D02*
X05017D01*
X07135Y01835D02*
X07515Y01455D01*
X06302Y01835D02*
X07135D01*
X05489Y02392D02*
X05744D01*
X05452Y02044D02*
X05529D01*
X05561Y02011*
X05708*
X05785Y02088*
X05744Y02392D02*
X05785Y02352D01*
X0072Y0388D02*
X0079Y0381D01*
X01095*
X04Y01653D02*
X04573D01*
X04588Y01842D02*
Y02138D01*
X0344Y01495D02*
X03548D01*
X05602Y03393D02*
X05694Y03485D01*
X0452Y03525D02*
X04681Y03363D01*
X05643*
X05756Y03477*
X04182Y02521D02*
X04315Y02654D01*
Y02886*
X04338Y02909*
X04205Y0274D02*
X0428D01*
X0415Y02685D02*
X04205Y0274D01*
X04689Y01389D02*
X04735Y01435D01*
X04999*
X04232Y03466D02*
X04264D01*
X04364Y03566*
X04719*
X04195Y03695D02*
X0423Y0373D01*
X04195Y03548D02*
Y03695D01*
Y03548D02*
X04247Y03496D01*
X05548Y03497D02*
Y03727D01*
X02703Y03571D02*
X02952Y0382D01*
X03879D02*
X04232Y03466D01*
X03583Y0382D02*
X03587Y03815D01*
X03612*
X03616Y0382*
X03879*
X03063Y03594D02*
X03187D01*
X03279Y03595D02*
X03282Y03598D01*
X03217Y03595D02*
X03279D01*
X03217D02*
D01*
X03187Y03594D02*
X0319Y03597D01*
X03215*
X03217Y03595*
X02952Y0382D02*
X03415D01*
X03583*
X0197Y03415D02*
X0269D01*
X02289Y03505D02*
X02505D01*
X02513Y03513*
X015Y03655D02*
X017Y03455D01*
X02924D02*
X03063Y03594D01*
X017Y03455D02*
X02335D01*
X02924*
X02482Y01444D02*
X03387D01*
X03548Y01451D02*
X04635D01*
X01646Y01152D02*
Y01838D01*
X01817Y0201*
X03804*
X01827Y02043D02*
X03804D01*
X0144Y0143D02*
X01625Y01615D01*
Y0184*
X01827Y02043*
X0143Y0203D02*
X0157Y0189D01*
Y01755D02*
Y0189D01*
X02163Y03108D02*
X02167D01*
X0214Y03085D02*
X02163Y03108D01*
X0179Y03085D02*
X0214D01*
X01525D02*
X0179D01*
X0151Y031D02*
X01525Y03085D01*
X01413Y03051D02*
Y0308D01*
Y03051D02*
X01414Y03051D01*
X01413Y0308D02*
X01433Y031D01*
X0151*
X0298Y03338D02*
X03088Y0323D01*
X0738*
X0758Y0343*
X07305Y03088D02*
Y032D01*
X07535Y02652D02*
Y0291D01*
Y02652D02*
X07617Y0257D01*
X0652Y03768D02*
Y0382D01*
X066Y02875D02*
X06605Y0288D01*
X0622Y02935D02*
X06275Y0288D01*
X06245Y02365D02*
Y02377D01*
X07723Y03023D02*
X0838Y0368D01*
X06013Y03023D02*
X07723D01*
X07257Y0304D02*
X07305Y03088D01*
X07209Y03059D02*
X07225Y03075D01*
X05899Y0304D02*
X07257D01*
X05224Y03059D02*
X07209D01*
X0423Y03084D02*
X05148D01*
X05149Y03085*
X05174*
X05175Y03084*
X07134*
X07155Y03105*
X07315Y03445D02*
X07335D01*
X07305Y03275D02*
X07335Y03305D01*
Y03425*
X07315Y03445D02*
X07335Y03425D01*
X07095Y0344D02*
X071Y03445D01*
X0726Y03477D02*
X07268Y03485D01*
X07567*
X07252Y03531D02*
X07258Y03525D01*
X07635*
X07675Y03485*
X05653Y03532D02*
X05864D01*
X07567Y03485D02*
X07615D01*
X0762Y0348*
X0686Y03586D02*
X07329D01*
X0737Y03545*
X0745*
X07573Y03668D02*
Y03747D01*
X0745Y03545D02*
X07573Y03668D01*
X01499Y0266D02*
Y03042D01*
X0423Y0373D02*
X05011D01*
X074Y0358D02*
X07405Y03585D01*
X0806Y0372D02*
X0809D01*
X0806Y0392D02*
X08085D01*
X05011Y0373D02*
X0576D01*
X05774Y03744*
X0595*
X01559Y02703D02*
X01688D01*
X01874Y02889*
X01884*
X0079Y0281D02*
X0118D01*
X01359Y0263*
X01414*
X01415Y0263*
X01511*
X0069Y0207D02*
X03792D01*
X0062Y02D02*
X0069Y0207D01*
X04542Y04062D02*
X04555Y04075D01*
X04645D02*
X04657Y04062D01*
X03765Y02105D02*
X04005Y02345D01*
X0094Y0212D02*
X0099Y0217D01*
G54D34*
X0485Y01965D02*
X04895Y0192D01*
X04645Y01965D02*
X0485D01*
X04185Y0092D02*
X04245Y0086D01*
X04185Y0092D02*
Y01335D01*
X0378Y0086D02*
X0442D01*
X0372Y0092D02*
X0378Y0086D01*
X0442D02*
X0448Y0092D01*
X0502Y0086D02*
X0508Y0092D01*
X0494Y0086D02*
X0502D01*
X0488Y0092D02*
X0494Y0086D01*
X0454D02*
X0462D01*
X0448Y0092D02*
X0454Y0086D01*
X0462D02*
X0468Y0092D01*
X0482Y0086D02*
X0488Y0092D01*
X0474Y0086D02*
X0482D01*
X0468Y0092D02*
X0474Y0086D01*
X0366D02*
X0372Y0092D01*
X0358Y0086D02*
X0366D01*
X0352Y0092D02*
X0358Y0086D01*
X0346D02*
X0352Y0092D01*
X0338Y0086D02*
X0346D01*
X0332Y0092D02*
X0338Y0086D01*
X0325Y00855D02*
X03315Y0092D01*
X0318Y00855D02*
X0325D01*
X0312Y00915D02*
X0318Y00855D01*
X03055D02*
X0312Y0092D01*
X02545Y00855D02*
X03055D01*
X0248Y0092D02*
X02545Y00855D01*
X02415D02*
X0248Y0092D01*
X02345Y00855D02*
X02415D01*
X0228Y0092D02*
X02345Y00855D01*
X0222Y0086D02*
X0228Y0092D01*
X0214Y0086D02*
X0222D01*
X0208Y0092D02*
X0214Y0086D01*
X03425Y04115D02*
X03471Y04069D01*
X03335Y04115D02*
X03425D01*
X0328Y0406D02*
X03335Y04115D01*
X03225D02*
X0328Y0406D01*
X03135Y04115D02*
X03225D01*
X0308Y0406D02*
X03135Y04115D01*
X03025D02*
X0308Y0406D01*
X02935Y04115D02*
X03025D01*
X0288Y0406D02*
X02935Y04115D01*
X0214Y041D02*
X0225Y0421D01*
X0273D02*
X0288Y0406D01*
X0185Y0421D02*
X0273D01*
X0165D02*
X0185D01*
X0099D02*
X0165D01*
X0174Y041D02*
X0185Y0421D01*
X0154Y041D02*
X0165Y0421D01*
X03471Y04069D02*
X04051D01*
X041Y0402*
X00632Y02452D02*
X0094Y0276D01*
X00632Y0224D02*
Y02452D01*
Y0224D02*
X0067Y02202D01*
X00822*
X0094Y0232*
Y0416D02*
X0099Y0421D01*
X041Y0402D02*
X04145Y04065D01*
X04255*
X043Y0402*
X04345Y04065*
X04455*
X045Y0402*
X047D02*
X0475Y0407D01*
X0535*
X0542Y04*
X0602D02*
X06089Y04069D01*
X06851*
X069Y0402*
X0156Y0432D02*
X0166D01*
X0176*
X0186*
X0196*
X029D02*
X03D01*
X031*
X032*
X033*
X0412D02*
X0422D01*
X0432*
X0442*
X0452*
X066Y028D02*
Y02875D01*
X0636Y024D02*
Y02405D01*
X06355Y024D02*
X0636D01*
X06355D02*
X0636Y02395D01*
Y02405D02*
X0637Y02395D01*
X06605*
X0666Y0245*
X06275Y02415D02*
X063Y0239D01*
X06275Y02415D02*
Y0288D01*
X0673Y02155D02*
X06785Y0221D01*
Y0238*
X06247Y0226D02*
X0634D01*
X06143Y02364D02*
X06247Y0226D01*
X06185Y02415D02*
X06198D01*
X06191Y02408D02*
X06198Y02415D01*
X06191Y02408D02*
X06222Y02377D01*
X06245*
X07095Y0332D02*
Y0344D01*
X07405Y03585D02*
Y0374D01*
X073Y0402D02*
X0737Y0409D01*
X0743*
X075Y0402*
X071D02*
X07175Y04095D01*
X07225*
X073Y0402*
X069D02*
X06965Y04085D01*
X07035*
X071Y0402*
X0582Y04D02*
X05885Y04065D01*
X05955*
X0602Y04*
X0562D02*
X0568Y0406D01*
X0576*
X0582Y04*
X0542D02*
X05484Y04064D01*
X05555*
X0562Y04*
X04657Y04062D02*
X047Y0402D01*
X045D02*
X04542Y04062D01*
X04555Y04075D02*
X04645D01*
X0072Y01076D02*
Y0133D01*
Y01076D02*
X01016Y0078D01*
X03675Y02255D02*
X03835D01*
X03945Y02365*
X0194Y041D02*
X0204Y042D01*
G54D35*
X01362Y01177D02*
X01497D01*
X01087Y00902D02*
X01362Y01177D01*
X02235Y01387D02*
X02282D01*
X02187D02*
X02235D01*
X02187D02*
X02225D01*
X01595Y01275D02*
Y01345D01*
X01497Y01177D02*
X01595Y01275D01*
X0722Y0062D02*
X0732D01*
X0742*
X0752*
X0762*
X0614D02*
X0624D01*
X0634*
X0644*
X0654*
X0474D02*
X0484D01*
X0494*
X0464D02*
X0474D01*
X0494D02*
X0504D01*
X05582Y02072D02*
X05602Y02052D01*
X05582Y02072D02*
Y02214D01*
X0328Y0062D02*
X0338D01*
X0348*
X0358*
X0368*
X0222D02*
X0232D01*
X0212D02*
X0222D01*
X0232D02*
X0242D01*
X0202D02*
X0212D01*
X05745Y02114D02*
Y02269D01*
X05685Y02054D02*
X05745Y02114D01*
X05435Y0442D02*
X05535D01*
X05635*
X05735*
X05835*
X03D02*
X031D01*
X032*
X029D02*
X03D01*
X032D02*
X033D01*
X07005D02*
X07105D01*
X06905D02*
X07005D01*
X07105D02*
X07205D01*
X07305*
X0432D02*
X0442D01*
X0422D02*
X0432D01*
X0442D02*
X0452D01*
X0412D02*
X0422D01*
X0176D02*
X0186D01*
X0196*
X0166D02*
X0176D01*
X0156D02*
X0166D01*
X005Y005D02*
X085D01*
X005D02*
Y045D01*
X085Y005D02*
Y045D01*
X005D02*
X085D01*
G54D36*
X077Y0086D02*
X07945D01*
X0764Y0092D02*
X077Y0086D01*
X0804Y00955D02*
Y0138D01*
X07945Y0086D02*
X0804Y00955D01*
X06655Y00865D02*
X06985D01*
X066Y0092D02*
X06655Y00865D01*
X06985D02*
X0704Y0092D01*
X0654Y0086D02*
X066Y0092D01*
X0646Y0086D02*
X0654D01*
X064Y0092D02*
X0646Y0086D01*
X0634D02*
X064Y0092D01*
X0626Y0086D02*
X0634D01*
X062Y0092D02*
X0626Y0086D01*
X0614D02*
X062Y0092D01*
X0606Y0086D02*
X0614D01*
X06Y0092D02*
X0606Y0086D01*
X0203Y0097D02*
X0208Y0092D01*
X0193Y0097D02*
X0203D01*
X0188Y0092D02*
X0193Y0097D01*
X075Y0402D02*
X07645Y04165D01*
X08015*
X0806Y0412*
X08115Y04065*
Y03975D02*
Y04065D01*
X0806Y0392D02*
X08115Y03975D01*
X0806Y0372D02*
X08115Y03665D01*
Y03575D02*
Y03665D01*
X0806Y0352D02*
X08115Y03575D01*
X0808Y0242D02*
X08125Y02375D01*
Y02065D02*
Y02375D01*
X0804Y0198D02*
X08125Y02065D01*
X0804Y0198D02*
X08095Y01925D01*
Y01835D02*
Y01925D01*
X0804Y0178D02*
X08095Y01835D01*
X0804Y0178D02*
X08095Y01725D01*
Y01635D02*
Y01725D01*
X0804Y0158D02*
X08095Y01635D01*
X0804Y0158D02*
X081Y0152D01*
Y0144D02*
Y0152D01*
X0804Y0138D02*
X081Y0144D01*
X0704Y0092D02*
X07095Y00865D01*
X07185*
X0724Y0092*
X073Y0086*
X0738*
X0744Y0092*
X07505Y00855*
X07575*
X0764Y0092*
X0809Y0372D02*
X08145Y03775D01*
Y0386*
X08085Y0392D02*
X08145Y0386D01*
G54D37*
X01016Y00665D02*
Y0078D01*
X01303*
X0202Y0072D02*
X0212D01*
X0222*
X0232*
X0242*
X0328*
X0338*
X0348*
X0358*
X0368*
X0464*
X0474*
X0484*
X0494*
X0504*
X0614D02*
X0624D01*
X0634*
X0644*
X0654*
X0722*
X0732*
X0742*
X0752*
X0762*
X0196Y0432D02*
X029D01*
X033D02*
X0412D01*
X0452D02*
X05435D01*
X05535*
X05635*
X05735*
X06905D02*
X07005D01*
X07105*
X07205*
X07305*
X06865Y0436D02*
X06905Y0432D01*
X0121D02*
X0156D01*
X0111Y0442D02*
X0121Y0432D01*
X00885Y0442D02*
X0111D01*
X0072Y0418D02*
Y04255D01*
X00885Y0442*
X0085Y012D02*
X0119D01*
X0072Y0133D02*
Y016D01*
Y0133D02*
X0085Y012D01*
X061Y0076D02*
X0614Y0072D01*
X0504D02*
X05275D01*
X05315Y0076*
X061*
X05735Y0432D02*
X05935D01*
X05975Y0436*
X06865*
G54D42*
X0094Y0232D03*
X0838Y01535D03*
X0094Y0336D03*
X0808Y0242D03*
X0804Y0138D03*
X0062Y0418D03*
Y02D03*
X0838Y0368D03*
X0062Y0314D03*
X0838Y026D03*
X0094Y0436D03*
X0806Y0352D03*
G54D43*
X0104Y0232D03*
X0094Y0222D03*
X0104D03*
X0094Y0212D03*
X0104D03*
X0094Y0202D03*
X0104D03*
X0094Y0192D03*
X0104D03*
X0094Y0182D03*
X0104D03*
X0094Y0172D03*
X0104D03*
X0094Y0162D03*
X0104D03*
X0828Y01935D03*
Y01835D03*
Y01735D03*
Y01635D03*
Y01535D03*
X0838Y01935D03*
Y01835D03*
Y01735D03*
Y01635D03*
X0312Y0102D03*
X0322Y0092D03*
Y0102D03*
X0332Y0092D03*
Y0102D03*
X0342Y0092D03*
Y0102D03*
X0352Y0092D03*
Y0102D03*
X0362Y0092D03*
Y0102D03*
X0372Y0092D03*
Y0102D03*
X0382Y0092D03*
Y0102D03*
X0104Y0336D03*
X0094Y0326D03*
X0104D03*
X0094Y0316D03*
X0104D03*
X0094Y0306D03*
X0104D03*
X0094Y0296D03*
X0104D03*
X0094Y0286D03*
X0104D03*
X0094Y0276D03*
X0104D03*
X0094Y0266D03*
X0104D03*
X0448Y0102D03*
X0458Y0092D03*
Y0102D03*
X0468Y0092D03*
Y0102D03*
X0478Y0092D03*
Y0102D03*
X0488Y0092D03*
Y0102D03*
X0498Y0092D03*
Y0102D03*
X0508Y0092D03*
Y0102D03*
X0518Y0092D03*
Y0102D03*
X0348Y0396D03*
X0338Y0406D03*
Y0396D03*
X0328Y0406D03*
Y0396D03*
X0318Y0406D03*
Y0396D03*
X0308Y0406D03*
Y0396D03*
X0298Y0406D03*
Y0396D03*
X0288Y0406D03*
Y0396D03*
X0278Y0406D03*
Y0396D03*
X0798Y0242D03*
X0808Y0252D03*
X0798D03*
X0808Y0262D03*
X0798D03*
X0808Y0272D03*
X0798D03*
X0808Y0282D03*
X0798D03*
X0808Y0292D03*
X0798D03*
X0808Y0302D03*
X0798D03*
X0808Y0312D03*
X0798D03*
X0188Y0102D03*
X0198Y0092D03*
Y0102D03*
X0208Y0092D03*
Y0102D03*
X0218Y0092D03*
Y0102D03*
X0228Y0092D03*
Y0102D03*
X0238Y0092D03*
Y0102D03*
X0248Y0092D03*
Y0102D03*
X0258Y0092D03*
Y0102D03*
X075Y0392D03*
X074Y0402D03*
Y0392D03*
X073Y0402D03*
Y0392D03*
X072Y0402D03*
Y0392D03*
X071Y0402D03*
Y0392D03*
X07Y0402D03*
Y0392D03*
X069Y0402D03*
Y0392D03*
X068Y0402D03*
Y0392D03*
X0794Y0138D03*
X0804Y0148D03*
X0794D03*
X0804Y0158D03*
X0794D03*
X0804Y0168D03*
X0794D03*
X0804Y0178D03*
X0794D03*
X0804Y0188D03*
X0794D03*
X0804Y0198D03*
X0794D03*
X0804Y0208D03*
X0794D03*
X0704Y0102D03*
X0714Y0092D03*
Y0102D03*
X0724Y0092D03*
Y0102D03*
X0734Y0092D03*
Y0102D03*
X0744Y0092D03*
Y0102D03*
X0754Y0092D03*
Y0102D03*
X0764Y0092D03*
Y0102D03*
X0774Y0092D03*
Y0102D03*
X0214Y04D03*
X0204Y041D03*
Y04D03*
X0194Y041D03*
Y04D03*
X0184Y041D03*
Y04D03*
X0174Y041D03*
Y04D03*
X0164Y041D03*
Y04D03*
X0154Y041D03*
Y04D03*
X0144Y041D03*
Y04D03*
X06Y0102D03*
X061Y0092D03*
Y0102D03*
X062Y0092D03*
Y0102D03*
X063Y0092D03*
Y0102D03*
X064Y0092D03*
Y0102D03*
X065Y0092D03*
Y0102D03*
X066Y0092D03*
Y0102D03*
X067Y0092D03*
Y0102D03*
X0602Y039D03*
X0592Y04D03*
Y039D03*
X0582Y04D03*
Y039D03*
X0572Y04D03*
Y039D03*
X0562Y04D03*
Y039D03*
X0552Y04D03*
Y039D03*
X0542Y04D03*
Y039D03*
X0532Y04D03*
Y039D03*
X0072Y0378D03*
Y0388D03*
Y0398D03*
Y0408D03*
Y0418D03*
X0062Y0378D03*
Y0388D03*
Y0398D03*
Y0408D03*
X0156Y0432D03*
X0166D03*
X0176D03*
X0186D03*
X0196D03*
X0156Y0442D03*
X0166D03*
X0176D03*
X0186D03*
X0412Y0432D03*
X0422D03*
X0432D03*
X0442D03*
X0452D03*
X0412Y0442D03*
X0422D03*
X0432D03*
X0442D03*
X06905Y0432D03*
X07005D03*
X07105D03*
X07205D03*
X07305D03*
X06905Y0442D03*
X07005D03*
X07105D03*
X07205D03*
X0368Y0072D03*
X0358D03*
X0348D03*
X0338D03*
X0328D03*
X0368Y0062D03*
X0358D03*
X0348D03*
X0338D03*
X0242Y0072D03*
X0232D03*
X0222D03*
X0212D03*
X0202D03*
X0242Y0062D03*
X0232D03*
X0222D03*
X0212D03*
X0072Y016D03*
Y017D03*
Y018D03*
Y019D03*
Y02D03*
X0062Y016D03*
Y017D03*
Y018D03*
Y019D03*
X0828Y0408D03*
Y0398D03*
Y0388D03*
Y0378D03*
Y0368D03*
X0838Y0408D03*
Y0398D03*
Y0388D03*
Y0378D03*
X05435Y0432D03*
X05535D03*
X05635D03*
X05735D03*
X05835D03*
X05435Y0442D03*
X05535D03*
X05635D03*
X05735D03*
X029Y0432D03*
X03D03*
X031D03*
X032D03*
X033D03*
X029Y0442D03*
X03D03*
X031D03*
X032D03*
X0072Y0274D03*
Y0284D03*
Y0294D03*
Y0304D03*
Y0314D03*
X0062Y0274D03*
Y0284D03*
Y0294D03*
Y0304D03*
X0504Y0072D03*
X0494D03*
X0484D03*
X0474D03*
X0464D03*
X0504Y0062D03*
X0494D03*
X0484D03*
X0474D03*
X0654Y0072D03*
X0644D03*
X0634D03*
X0624D03*
X0614D03*
X0654Y0062D03*
X0644D03*
X0634D03*
X0624D03*
X0762Y0072D03*
X0752D03*
X0742D03*
X0732D03*
X0722D03*
X0762Y0062D03*
X0752D03*
X0742D03*
X0732D03*
X0828Y03D03*
Y029D03*
Y028D03*
Y027D03*
Y026D03*
X0838Y03D03*
Y029D03*
Y028D03*
Y027D03*
X0698Y0228D03*
X0708D03*
X0104Y0436D03*
X0094Y0426D03*
X0104D03*
X0094Y0416D03*
X0104D03*
X0094Y0406D03*
X0104D03*
X0094Y0396D03*
X0104D03*
X0094Y0386D03*
X0104D03*
X0094Y0376D03*
X0104D03*
X0094Y0366D03*
X0104D03*
X0796Y0352D03*
X0806Y0362D03*
X0796D03*
X0806Y0372D03*
X0796D03*
X0806Y0382D03*
X0796D03*
X0806Y0392D03*
X0796D03*
X0806Y0402D03*
X0796D03*
X0806Y0412D03*
X0796D03*
X0806Y0422D03*
X0796D03*
X047Y0392D03*
X046Y0402D03*
Y0392D03*
X045Y0402D03*
Y0392D03*
X044Y0402D03*
Y0392D03*
X043Y0402D03*
Y0392D03*
X042Y0402D03*
Y0392D03*
X041Y0402D03*
Y0392D03*
X04Y0402D03*
Y0392D03*
G54D44*
X07515Y01455D03*
G54D45*
X0312Y0092D03*
X0448D03*
X0348Y0406D03*
X0188Y0092D03*
X075Y0402D03*
X0704Y0092D03*
X0214Y041D03*
X06Y0092D03*
X0602Y04D03*
X0196Y0442D03*
X0452D03*
X07305D03*
X0328Y0062D03*
X0202D03*
X05835Y0442D03*
X033D03*
X0464Y0062D03*
X0614D03*
X0722D03*
X0718Y0228D03*
X047Y0402D03*
G54D46*
X01303Y0078D03*
Y00665D03*
X01016D03*
Y0078D03*
G54D47*
X0644Y0382D03*
X0652D03*
G54D48*
X04895Y0192D03*
X04645Y01965D03*
X04068Y02976D03*
X05765Y02594D03*
X04185Y01335D03*
X041Y02015D03*
X05645Y03672D03*
X05597Y03625D03*
Y03672D03*
X05692D03*
X0452Y03525D03*
X04565Y02355D03*
X0442Y02325D03*
X04505Y02315D03*
X04495Y02415D03*
X04565Y0244D03*
X07535Y0291D03*
X03147Y03647D03*
X03145Y0371D03*
X031Y0364D03*
X03055Y0371D03*
X03295Y0145D03*
X03975Y02535D03*
X04635Y01455D03*
X0343Y0135D03*
X0487Y01355D03*
X04995Y01495D03*
X04869Y01347D03*
X07665Y036D03*
X0758Y0343D03*
X07675Y03445D03*
X07225Y03075D03*
X05695Y02506D03*
X05875Y02515D03*
X05885Y02435D03*
X05635Y02465D03*
X0543Y02475D03*
X05369Y02524D03*
X0527Y02525D03*
X0532D03*
X0537Y02611D03*
X0556Y0263D03*
X0512Y02765D03*
X05165Y02675D03*
X0546Y0264D03*
X05545Y0283D03*
X036Y03845D03*
X037Y03945D03*
X015Y0266D03*
X008Y01055D03*
X01075Y0089D03*
X0207Y0148D03*
X03855Y02435D03*
X0123Y01225D03*
X06985Y0146D03*
X04225Y01949D03*
X04315Y02539D03*
X04324Y02347D03*
X01943Y03206D03*
X01638D03*
X01726Y01697D03*
X0142Y01209D03*
X01128Y00839D03*
X01425Y01115D03*
X05515Y02216D03*
X04345Y01945D03*
X05494Y02537D03*
X05403Y00685D03*
X05921Y02991D03*
X05162Y03056D03*
X04867Y03456D03*
X04719Y03566D03*
X01414Y03051D03*
X02167Y03108D03*
X02703Y03571D03*
X0483Y02262D03*
X05694Y03485D03*
X04933Y03393D03*
X04917Y02258D03*
X0436Y02152D03*
X04435Y02389D03*
X04963Y02274D03*
Y03156D03*
X03203Y03568D03*
X04248Y02973D03*
X0228Y03515D03*
X02513Y03513D03*
X0278Y01862D03*
X04503Y02089D03*
X01759Y03326D03*
X0344Y015D03*
X04588Y02138D03*
X01253Y01357D03*
X00879D03*
X04472Y02619D03*
X03542Y02531D03*
X03841Y02736D03*
X07573Y03747D03*
X0423Y03084D03*
X02282Y01387D03*
X02187D03*
X04247Y03496D03*
X0686Y03586D03*
X0085Y01281D03*
X04655Y04375D03*
X0566Y02863D03*
X0395Y03004D03*
X05645Y0069D03*
X07035Y00805D03*
X0119Y0115D03*
X01559Y02703D03*
X01884Y02889D03*
X0392Y02453D03*
X07252Y03531D03*
X02288Y01638D03*
X01496Y03319D03*
X03282Y03598D03*
X04304Y01722D03*
X04213Y02337D03*
X01745Y01896D03*
X0144Y0143D03*
X04318Y02438D03*
X0298Y03338D03*
X03082Y02105D03*
X03811Y02416D03*
Y02676D03*
X05994Y03004D03*
X04602Y02713D03*
X04586Y02596D03*
X0605Y0162D03*
X04618Y02098D03*
X04725Y02145D03*
X0149Y01144D03*
X04713Y01623D03*
X01979Y01472D03*
X04426Y0288D03*
X04196Y02912D03*
X01656Y02166D03*
X03428Y02238D03*
X05548Y03497D03*
X05237Y00575D03*
X01529Y03039D03*
X04174Y02568D03*
X04351Y0288D03*
X07659Y0291D03*
X04479Y02702D03*
X01815Y01726D03*
X0726Y03477D03*
X05756D03*
X02336Y01528D03*
X03569Y01516D03*
X01595Y02125D03*
X01592Y02883D03*
X01483Y03058D03*
X04097Y03018D03*
X05452Y02044D03*
X01095Y0381D03*
X01595Y01345D03*
X05602Y02052D03*
X05582Y02214D03*
X05745Y02269D03*
X05685Y02054D03*
X03425Y01392D03*
X0352D03*
X03425Y01345D03*
X03472D03*
X0352D03*
X03425Y01297D03*
X03472D03*
X0352D03*
X02187Y01387D03*
X02235D03*
X02282D03*
X02187Y0134D03*
X02235D03*
X02282D03*
X02187Y01292D03*
X02235D03*
X02282D03*
X04775Y01347D03*
X04822D03*
X04775Y013D03*
X04822D03*
X04869D03*
X0145Y01909D03*
Y01862D03*
Y01815D03*
X01402Y01909D03*
Y01862D03*
Y01815D03*
X01355Y01909D03*
Y01862D03*
Y01815D03*
X05692Y03577D03*
X05645D03*
X05597D03*
X05692Y03625D03*
X05645D03*
X031Y03647D03*
X03052D03*
X03147Y03742D03*
X031D03*
X03052D03*
X07662Y03642D03*
Y03689D03*
X07709Y03595D03*
Y03642D03*
Y03689D03*
X07756Y03595D03*
Y03642D03*
Y03689D03*
X01412Y02867D03*
Y0282D03*
Y02772D03*
X01365Y02867D03*
Y0282D03*
Y02772D03*
X01317Y02867D03*
Y0282D03*
Y02772D03*
X07492Y01892D03*
Y0194D03*
Y01987D03*
X0754Y01892D03*
Y0194D03*
Y01987D03*
X07587Y01892D03*
Y0194D03*
Y01987D03*
X07117Y01402D03*
X07165D03*
X07212D03*
X07117Y01355D03*
X07165D03*
X07212D03*
X07117Y01307D03*
X07165D03*
X07212D03*
X07572Y02687D03*
Y02735D03*
Y02782D03*
X0762Y02687D03*
Y02735D03*
Y02782D03*
X07667Y02687D03*
Y02735D03*
Y02782D03*
X06052Y01487D03*
X061D03*
X06147D03*
X06052Y0144D03*
X061D03*
X06147D03*
X06052Y01392D03*
X061D03*
X06147D03*
X01447Y03607D03*
Y0356D03*
Y03512D03*
X014Y03607D03*
Y0356D03*
Y03512D03*
X01352Y03607D03*
Y0356D03*
Y03512D03*
X07112Y03647D03*
X07065D03*
X07017D03*
X02167Y03592D03*
X0212D03*
X02072D03*
X02167Y0364D03*
X0212D03*
X02072D03*
X02167Y03687D03*
X0212D03*
X02072D03*
X04588Y01842D03*
X04585Y01655D03*
X0666Y0245D03*
X05785Y0353D03*
X0428Y0274D03*
X0415Y02685D03*
X04825Y01395D03*
X04822Y01394D03*
X0433Y03635D03*
X04377Y03587D03*
Y03635D03*
X0433Y03587D03*
X04282Y03635D03*
Y03587D03*
X04377Y03682D03*
X0433D03*
X04282D03*
X05011Y0373D03*
X03415Y0382D03*
X0269Y03415D03*
X0197D03*
X02335Y03455D03*
X0151Y0367D03*
X0143Y0203D03*
X0157Y01755D03*
X0179Y03085D03*
X07305Y03275D03*
Y032D03*
X06605Y0288D03*
X066Y028D03*
X0622Y02935D03*
X0634Y0226D03*
X0636Y02395D03*
X063Y0239D03*
X0673Y02155D03*
X06785Y0238D03*
X06143Y02364D03*
X06185Y02415D03*
X06245Y02365D03*
X07155Y03105D03*
X07335Y03445D03*
X071D03*
X07095Y0332D03*
X0762Y0348D03*
X07017Y03552D03*
X07065D03*
X07112D03*
Y036D03*
X07065D03*
X07017D03*
X07405Y0374D03*
X074Y0358D03*
X0119Y012D03*
X01415Y0263D03*
X05492Y01308D03*
X04005Y02345D03*
X03945Y02365D03*
X03675Y02255D03*
G54D49*
X06485Y0259D03*
X06535Y0264D03*
X0643Y02595D03*
X06577Y0264D03*
Y02592D03*
X0653D03*
X06482Y0264D03*
X06435D03*
X06388D03*
Y02592D03*
X06341Y0264D03*
Y02592D03*
M02*